<?xml version="1.0" encoding="UTF-8" standalone="no"?>
<svg
   xmlns:dc="http://purl.org/dc/elements/1.1/"
   xmlns:cc="http://creativecommons.org/ns#"
   xmlns:rdf="http://www.w3.org/1999/02/22-rdf-syntax-ns#"
   xmlns:svg="http://www.w3.org/2000/svg"
   xmlns="http://www.w3.org/2000/svg"
   xmlns:sodipodi="http://sodipodi.sourceforge.net/DTD/sodipodi-0.dtd"
   xmlns:inkscape="http://www.inkscape.org/namespaces/inkscape"
   version="1.1"
   x="0px"
   y="0px"
   viewBox="0 0 100 100"
   enable-background="new 0 0 100 100"
   xml:space="preserve"
   id="svg2"
   inkscape:version="0.91 r13725"
   sodipodi:docname="checkbox-noun_3879-uncheck.svg"><metadata
     id="metadata12"><rdf:RDF><cc:Work
         rdf:about=""><dc:format>image/svg+xml</dc:format><dc:type
           rdf:resource="http://purl.org/dc/dcmitype/StillImage" /></cc:Work></rdf:RDF></metadata><defs
     id="defs10" /><sodipodi:namedview
     pagecolor="#ffffff"
     bordercolor="#666666"
     borderopacity="1"
     objecttolerance="10"
     gridtolerance="10"
     guidetolerance="10"
     inkscape:pageopacity="0"
     inkscape:pageshadow="2"
     inkscape:window-width="1362"
     inkscape:window-height="729"
     id="namedview8"
     showgrid="false"
     inkscape:zoom="3.337544"
     inkscape:cx="66.835878"
     inkscape:cy="82.989551"
     inkscape:window-x="0"
     inkscape:window-y="18"
     inkscape:window-maximized="0"
     inkscape:current-layer="svg2" /><path
     d="M6.62,83.479c0,5.394,4.373,9.768,9.768,9.768l52.468,0.062c5.395,0,9.768-4.373,9.768-9.768l-0.085-31.474h5.787v31.537  C84.325,92.107,77.433,99,68.93,99L15.76,98.938c-8.11,0-14.683-6.575-14.683-14.682L1,31.161c0-8.503,6.893-15.396,15.396-15.396  l48.809-0.079v5.794l-48.738-0.022c-5.394,0-9.768,4.372-9.768,9.768L6.62,83.479z"
     id="path6" /><path
     inkscape:connector-curvature="0"
     d="m 16.55844,21.337464 c -5.394,0 -9.7679998,4.373001 -9.7679998,9.768001 l -0.062,52.467995 c 0,5.395 4.3729998,9.768 9.7679998,9.768 l 31.474,-0.085 0,5.787 -31.537,0 c -8.5029998,-10e-4 -15.3959998,-6.893 -15.3959998,-15.396 l 0.062,-53.169995 c 0,-8.110001 6.575,-14.683001 14.6819998,-14.683001 l 53.095,-0.077 c 8.503,0 15.396,6.893 15.396,15.396001 l 0.079,48.808995 -5.794,0 0.022,-48.737995 c 0,-5.394 -4.372,-9.768001 -9.768,-9.768001 l -52.253,-0.079 z"
     id="path6-5" /></svg>