<svg xmlns="http://www.w3.org/2000/svg" xmlns:xlink="http://www.w3.org/1999/xlink" version="1.1" x="0px" y="0px" viewBox="0 0 100 100" enable-background="new 0 0 100 100" xml:space="preserve"><g><path d="M62.3,37.1h20.9c0.7,0,1.2-0.5,1.2-1.2s-0.5-1.2-1.2-1.2H62.3c-0.7,0-1.2,0.5-1.2,1.2S61.6,37.1,62.3,37.1z"></path><path d="M62.3,49.3h20.9c0.7,0,1.2-0.5,1.2-1.2s-0.5-1.2-1.2-1.2H62.3c-0.7,0-1.2,0.5-1.2,1.2S61.6,49.3,62.3,49.3z"></path><path d="M51.1,40.4C51.1,40.4,51.1,40.4,51.1,40.4c0.1,0.1,0.1,0.1,0.1,0.1c0.1,0,0.1,0.1,0.2,0.1c0,0,0.1,0,0.1,0.1   c0.1,0,0.3,0.1,0.4,0.1l0,0l0,0c0,0,0,0,0,0c0.1,0,0.3,0,0.4-0.1c0,0,0,0,0.1,0c0.1-0.1,0.2-0.1,0.3-0.2c0,0,0,0,0,0c0,0,0,0,0,0   c0,0,0,0,0.1-0.1l4.9-6.5c0.4-0.5,0.3-1.3-0.2-1.7c-0.5-0.4-1.3-0.3-1.7,0.2l-4,5.4l-2-1.9c-0.5-0.5-1.2-0.4-1.7,0   c-0.5,0.5-0.4,1.2,0,1.7L51.1,40.4z"></path><path d="M48,49.8l3,2.9c0,0,0,0,0.1,0c0,0,0,0,0,0.1c0.1,0,0.1,0.1,0.2,0.1c0,0,0.1,0,0.1,0.1c0.1,0,0.3,0.1,0.4,0.1l0,0l0,0   c0,0,0,0,0,0c0.1,0,0.3,0,0.4-0.1c0,0,0,0,0.1,0c0.1-0.1,0.2-0.1,0.3-0.2c0,0,0,0,0,0c0,0,0,0,0,0c0,0,0,0,0.1-0.1l4.9-6.5   c0.4-0.5,0.3-1.3-0.2-1.7c-0.5-0.4-1.3-0.3-1.7,0.2l-4,5.4l-2-1.9c-0.5-0.5-1.2-0.4-1.7,0C47.5,48.6,47.6,49.3,48,49.8z"></path><path d="M63.1,59.8c-0.7,0-1.2,0.5-1.2,1.2s0.5,1.2,1.2,1.2H84c0.7,0,1.2-0.5,1.2-1.2s-0.5-1.2-1.2-1.2H63.1z"></path><path d="M52.7,65.9c0.1,0,0.3,0,0.4-0.1c0,0,0,0,0.1,0c0.1-0.1,0.2-0.1,0.4-0.2c0,0,0,0,0,0c0,0,0,0,0,0c0,0,0,0,0.1-0.1l4.9-6.5   c0.4-0.5,0.3-1.3-0.2-1.7s-1.3-0.3-1.7,0.2l-4.1,5.4l-2-1.9c-0.5-0.5-1.2-0.4-1.7,0c-0.5,0.5-0.4,1.2,0,1.7l3,2.9c0,0,0,0,0.1,0   c0,0,0,0,0,0.1c0.1,0,0.1,0.1,0.2,0.1c0,0,0.1,0,0.1,0.1C52.4,65.8,52.6,65.9,52.7,65.9L52.7,65.9L52.7,65.9L52.7,65.9z"></path><path d="M30,53.4c-0.5-0.5-1.2-0.5-1.7,0L6.4,75.2c-0.5,0.5-0.5,1.2,0,1.7c0.2,0.2,0.5,0.3,0.8,0.3c0.3,0,0.6-0.1,0.8-0.3l21-21   l21,21c0.2,0.2,0.5,0.3,0.8,0.3c0.3,0,0.6-0.1,0.8-0.3c0.5-0.5,0.5-1.2,0-1.7L30,53.4z"></path><path d="M29.9,60.4c-0.5-0.5-1.2-0.5-1.7,0L14.1,74.6c-0.2,0.2-0.3,0.5-0.3,0.8v14.7c0,0.7,0.5,1.2,1.2,1.2h10.4   c0.7,0,1.2-0.5,1.2-1.2V81l5.7,0v9.2c0,0.7,0.5,1.2,1.2,1.2h10c0.7,0,1.2-0.5,1.2-1.2V75.4c0-0.3-0.1-0.6-0.4-0.8L29.9,60.4z    M42.2,89h-7.6v-9.2c0-0.3-0.1-0.6-0.4-0.8s-0.6-0.4-0.8-0.3l-8.1,0c-0.7,0-1.2,0.5-1.2,1.2v9.1h-8v-13l13-12.9l13.1,12.9V89z"></path><path d="M95,25.6c-0.1-0.1-0.1-0.3-0.3-0.4L78.2,8.7c-0.1-0.1-0.2-0.2-0.4-0.3c-0.1-0.1-0.3-0.1-0.5-0.1H39.8   c-0.7,0-1.2,0.5-1.2,1.2v46.7c0,0.7,0.5,1.2,1.2,1.2s1.2-0.5,1.2-1.2V10.7h35.2V26c0,0.7,0.5,1.2,1.2,1.2h15.3v53.9H54.6   c-0.7,0-1.2,0.5-1.2,1.2s0.5,1.2,1.2,1.2h39.3c0.7,0,1.2-0.5,1.2-1.2V26C95.1,25.9,95.1,25.7,95,25.6z M78.6,12.4L91,24.8H78.6   V12.4z"></path></g></svg>