<svg xmlns="http://www.w3.org/2000/svg" xmlns:xlink="http://www.w3.org/1999/xlink" version="1.1" x="0px" y="0px" viewBox="0 0 100 100" enable-background="new 0 0 100 100" xml:space="preserve"><path d="M83.59,34.787h-7.729L50.343,8.813L24.796,34.787h-7.713L50.343,0.949L83.59,34.787z M69.617,36.237v30.102H56.285v28.518  c0,2.317-2.217,4.194-4.947,4.194h-29.98c-2.73,0-4.947-1.877-4.947-4.194V49.133c0-2.169,1.947-3.956,4.439-4.171  c0.167-0.014,0.335-0.02,0.507-0.02h5.756v-1.56h3.942v-7.146l19.282-19.729L69.617,36.237z M29.464,51.769h13.768v-6.034H29.464  V51.769z M52.04,48.903h-6.458v5.216H27.113v-5.216h-6.461v42.424H52.04V48.903z M42.844,67.068l-7.495,13.737l-3.308-2.972  l-1.937,1.741l5.972,5.361l0.92-1.452l10.375-14.338L42.844,67.068z M36.347,59.727H23.862v2.138h12.485V59.727z M36.347,64.095  H23.862v2.137h12.485V64.095z"></path></svg>