<svg xmlns="http://www.w3.org/2000/svg" xmlns:xlink="http://www.w3.org/1999/xlink" version="1.1" x="0px" y="0px" viewBox="0 0 100 100" enable-background="new 0 0 100 100" xml:space="preserve"><g><path d="M-579.188,64.008l7.633,2.383L-554,62l-22.805-7.25c-1.211-0.383-2.539-0.156-3.563,0.594   c-1.023,0.758-1.633,1.953-1.633,3.227v1.617C-582,61.938-580.859,63.484-579.188,64.008z"></path><path d="M-520.805,72.25l-0.531-0.164l-17.781,4.445l15.93,4.977c1.211,0.375,2.531,0.156,3.563-0.602   c1.023-0.75,1.625-1.945,1.625-3.219V76.07C-518,74.32-519.133,72.773-520.805,72.25z"></path><path d="M-519.539,59.094c-0.707-0.555-1.578-0.844-2.461-0.844l-0.969,0.117l-56,14c-1.777,0.445-3.031,2.047-3.031,3.883V78   c0,1.234,0.57,2.398,1.539,3.156C-579.746,81.711-578.883,82-578,82l0.977-0.117l56-14C-519.246,67.438-518,65.836-518,64v-1.75   C-518,61.016-518.563,59.852-519.539,59.094z"></path><path d="M-559.992,50.047c3.422,7.609,16.074,12.023,22.5,2.648c6.383-9.313,0.859-24.32-10.563-34.695   C-546.102,28.695-567.609,33.109-559.992,50.047z M-553.211,46.047c1.766-1.852,6.055-4.203,6.609-12.219   c9.469,6.391,5.305,21.727-1.727,20.461C-555.484,53-554.977,47.891-553.211,46.047z"></path></g><path d="M-410.307,57.885c-0.105-12.816,3.875-18.119,3.875-18.119s-5.984,0.143-12.898,3.949  c-1.67-7.027,0.143-10.965,2.242-14.842c-0.863,0.471-4.523,2.023-8.215,4.787c-1.898-4.533-2.488-9.221-0.23-13.922  c-17.566,12.594-28.031,26.643-28.035,37.938c-0.008,8.799,2.191,22.586,23.473,22.586  C-408.188,80.262-410.307,62.437-410.307,57.885z M-431.166,73.43c-16.902,0-12.907-16.296-11.203-18  c-0.332,0.625-0.006,7.633,6.383,10.625c-4.172-5.201,2.986-11.742,6.227-14.293c0,7.375,2.992,14.293,2.992,14.293  s4.844-2.844,8.332-13.086C-416.6,60.93-418.068,73.43-431.166,73.43z"></path><g><path d="M-288.102,56.155c-7.445-16.148-2.641-21.328-2.586-21.383c0.078-0.086,0.086-0.215,0.031-0.316   c-0.078-0.102-0.203-0.141-0.313-0.098c-0.109,0.047-10.484,4.371-9.18,13.957c-2.852-2.559-16.133-15.688-8.008-31.129   c0.055-0.09,0.039-0.211-0.031-0.289c-0.078-0.082-0.195-0.105-0.297-0.063c-0.172,0.074-4.313,1.84-7.625,6.324   c-3.047,4.125-5.891,11.422-2.063,22.719c1.391,5.313-1.234,9.617-2.633,11.449c0.336-1.266,0.773-3.398,0.703-5.852   c-0.117-3.59-1.406-8.543-6.938-11.746c-0.094-0.051-0.195-0.043-0.281,0.016c-0.078,0.063-0.117,0.164-0.094,0.266   c0.023,0.094,2.086,9.531-1.539,13.898c-3.133,3.762-6.203,10.316-4.547,16.391c1.398,5.078,5.75,8.957,12.93,11.516   c1.852,0.57,3.609,1,5.563,1.367c0.125,0.023,0.242-0.051,0.289-0.172c0.039-0.129-0.031-0.266-0.148-0.32   c-3.68-1.598-7.5-4.934-4.656-11.699c2.688-5.84,2.203-8.844,1.672-10.133c1.383,0.785,4.148,2.816,3.461,6.395   c-0.016,0.105,0.023,0.219,0.125,0.27c0.094,0.055,0.203,0.047,0.281-0.023c0.094-0.063,8.398-6.906,4.633-15.285   c1.859,1.074,6.797,4.832,3.883,13.453c-0.969,3.703,1.672,6.367,1.781,6.48c0.086,0.086,0.219,0.102,0.32,0.035   s0.148-0.195,0.102-0.309c-0.086-0.23-2.055-5.531,2.219-8.465c-0.227,1.359-0.586,4.73,0.945,6.566   c1.367,1.652,2.695,4.363,2.297,7.012c-0.289,1.863-1.391,3.438-3.297,4.668c-0.102,0.074-0.141,0.207-0.086,0.324   s0.188,0.172,0.313,0.133c4.695-1.551,10.844-4.633,13.523-10.512C-285.375,67.264-285.625,62.069-288.102,56.155z"></path></g><path fill-rule="evenodd" clip-rule="evenodd" d="M-191.854,15.676c1.043,0,2.078,0,3.125,0c-0.039,1.094,0.055,2.055,0.047,3.117  c1.367-0.445,2.688-0.938,4.055-1.383c0.035,0.773,0.07,1.543,0.051,2.371c-1.352,0.551-2.691,1.109-4.059,1.637  c-0.008,1.18,0.086,2.258,0.102,3.414c2.234-1.164,4.336-2.461,6.578-3.613c0.133,0.793,0.203,1.465,0.348,2.328  c0.043,0.238,0.191,0.574,0.148,0.742c-0.086,0.313-1.426,1.004-1.734,1.188c-1.777,1.094-3.816,2.258-5.395,3.266  c0.023,0.984-0.047,2.063,0.055,2.969c2.258-1.152,4.391-2.438,6.633-3.613c0.059,1.012,0.191,1.953,0.293,2.922  c-0.113,0.102-0.152,0.277-0.199,0.445c-2.219,1.41-4.504,2.754-6.727,4.156c-0.016,1.816,0.086,3.508,0.051,5.348  c2.207-1.367,4.465-3.391,6.629-4.801c-0.223,2.363-0.469,4.715-0.695,7.074c1.266-0.621,2.691-1.496,4.016-2.227  c0.047-2.738,0.164-5.406,0.195-8.164c1-0.402,1.969-0.832,2.914-1.285c0.203,2.367,0.129,5.016,0.203,7.52  c0.953-0.414,1.762-0.98,2.672-1.438c0.039-2.828,0.109-5.629,0.195-8.41c1.055-0.316,1.992-0.754,3.027-1.09  c0,2.523,0.043,5,0.09,7.473c1.039-0.5,2.027-1.047,3.027-1.582c-0.191-1.445-0.434-2.84-0.602-4.309  c0.613-0.477,1.379-0.805,2.082-1.188c0.242,1.43,0.551,2.781,0.789,4.207c0.945-0.48,1.848-0.992,2.727-1.531  c0.547,0.867,1.016,1.82,1.586,2.668c-0.832,0.609-1.805,1.07-2.68,1.637c1.047,0.992,2.211,1.848,3.219,2.871  c-0.688,0.363-1.328,0.781-1.977,1.188c-1.242-0.824-2.297-1.832-3.512-2.672c-0.996,0.555-1.934,1.172-2.871,1.781  c2.102,1.289,4.238,2.559,6.383,3.809c-0.781,0.758-1.617,1.453-2.527,2.078c-2.387-1.367-4.879-2.645-7.27-4.008  c-0.867,0.508-1.715,1.027-2.578,1.535c2.094,1.355,4.297,2.598,6.438,3.91c-0.32,0.258-0.711,0.578-1.141,0.891  c-0.484,0.348-1.023,0.957-1.68,0.891c-0.453-0.043-1.27-0.605-1.785-0.891c-1.676-0.922-3.602-1.996-5.145-2.824  c-1.516,0.816-2.945,1.711-4.414,2.578c2.43,1.125,4.957,2.141,7.43,3.215c-2.195,1.109-4.523,2.074-6.781,3.117  c1.273,0.879,2.691,1.605,4.016,2.426c2.375-1.281,4.75-2.57,7.117-3.859c0.969,0.551,1.766,1.273,2.676,1.879  c-2.102,1.344-4.309,2.59-6.434,3.91c0.801,0.555,1.672,1.035,2.523,1.539c2.492-1.27,4.883-2.645,7.324-3.965  c0.918,0.621,1.762,1.313,2.527,2.082c-2.18,1.207-4.242,2.527-6.383,3.762c0.867,0.68,1.906,1.195,2.82,1.832  c1.234-0.824,2.289-1.832,3.508-2.676c0.711,0.363,1.344,0.805,2.031,1.188c-1.031,0.977-2.141,1.883-3.219,2.82  c0.828,0.605,1.805,1.07,2.672,1.637c-0.523,0.875-1.047,1.754-1.531,2.672c-0.953-0.445-1.789-1.016-2.723-1.484  c-0.348,1.332-0.582,2.785-0.84,4.203c-0.695-0.391-1.445-0.727-2.078-1.184c0.152-1.48,0.398-2.867,0.594-4.309  c-0.961-0.555-1.969-1.066-2.969-1.582c-0.18,2.359-0.117,4.965-0.148,7.473c-1.008-0.379-2.023-0.75-3.016-1.137  c-0.102-2.746-0.172-5.512-0.203-8.313c-0.824-0.586-1.781-1.023-2.672-1.539c-0.039,2.535-0.07,5.078-0.148,7.574  c-0.953-0.582-2.336-0.734-2.973-1.633c-0.051-2.617-0.152-5.191-0.199-7.824c-1.383-0.805-2.781-1.598-4.203-2.371  c0.211,2.461,0.586,5.188,0.891,7.723c-2.152-1.465-4.219-3.012-6.336-4.508c0.008,1.703-0.086,3.313-0.051,5.051  c2.285,1.457,4.676,2.816,6.934,4.301c-0.066,1.094-0.25,2.063-0.301,3.172c-2.176-1.023-4.383-2.449-6.633-3.563  c-0.113,0.871-0.016,1.961-0.051,2.918c2.305,1.539,4.77,2.926,7.133,4.402c-0.148,1.078-0.375,2.07-0.5,3.172  c-2.227-1.156-4.348-2.41-6.531-3.613c-0.18,0.992-0.066,2.27-0.199,3.316c1.281,0.668,2.77,1.129,4.113,1.73  c0.035,0.844-0.086,1.535-0.055,2.375c-1.336-0.453-2.68-0.91-4.008-1.387c-0.219,0.855-0.039,2.105-0.094,3.121  c-1.047,0-2.078,0-3.117,0c-0.039-1.027,0.059-2.176-0.055-3.121c-1.367,0.449-2.695,0.934-4.063,1.387  c0.043-0.84-0.078-1.531-0.047-2.375c1.355-0.574,2.766-1.098,4.109-1.68c-0.094-1.074-0.07-2.273-0.152-3.367  c-2.223,1.168-4.332,2.461-6.574,3.613c-0.125-1.086-0.344-2.07-0.5-3.117c2.336-1.527,4.766-2.957,7.176-4.406  c-0.113-0.895-0.012-1.996-0.051-2.969c-2.301,1.078-4.477,2.547-6.68,3.563c0.195-1.168-0.695-2.484-0.102-3.316  c0.125-0.176,0.57-0.324,0.844-0.496c1.93-1.199,4.18-2.57,5.887-3.711c0.031-1.648-0.035-3.199-0.043-4.801  c-1.969,1.301-4.074,3.152-6.094,4.402c0.281-2.477,0.523-4.988,0.75-7.52c-1.57,0.824-3.07,1.715-4.613,2.574  c-0.023,2.754-0.145,5.426-0.191,8.164c-1.016,0.355-2.047,0.961-2.969,1.238c-0.078-2.465-0.102-4.992-0.156-7.473  c-0.789,0.375-1.844,0.926-2.617,1.484c-0.109,2.73-0.172,5.504-0.203,8.313c-0.996,0.344-2.098,0.844-3.023,1.09  c-0.109-2.414-0.031-5.008-0.141-7.422c-1.039,0.496-2.031,1.047-3.023,1.582c0.234,1.434,0.406,2.926,0.641,4.355  c-0.727,0.359-1.391,0.785-2.125,1.137c-0.227-1.441-0.539-2.797-0.797-4.207c-0.969,0.449-1.777,1.063-2.773,1.488  c-0.477-0.922-1.008-1.797-1.531-2.676c0.91-0.492,1.734-1.07,2.672-1.531c-0.969-1.074-2.203-1.891-3.219-2.922  c0.719-0.355,1.324-0.82,2.031-1.188c1.211,0.848,2.273,1.852,3.516,2.672c0.93-0.617,1.961-1.141,2.82-1.832  c-2.148-1.246-4.273-2.516-6.383-3.809c0.836-0.684,1.617-1.422,2.52-2.031c2.434,1.355,4.887,2.672,7.332,4.012  c0.789-0.578,1.766-0.977,2.523-1.586c-2.137-1.313-4.336-2.559-6.438-3.906c0.434-0.297,0.852-0.59,1.336-0.945  c0.453-0.328,0.906-0.867,1.539-0.789c0.484,0.055,1.203,0.652,1.734,0.938c1.758,0.941,3.66,1.961,5.25,2.773  c1.453-0.918,3.008-1.746,4.453-2.676c-2.367-0.977-4.703-1.992-7.027-3.02c2.184-1.043,4.5-1.969,6.633-3.066  c-1.473-0.832-2.926-1.695-4.355-2.574c-2.453,1.242-4.781,2.613-7.234,3.863c-0.883-0.633-1.781-1.25-2.625-1.93  c2.164-1.289,4.363-2.535,6.438-3.91c-0.875-0.477-1.648-1.059-2.574-1.484c-2.465,1.293-4.855,2.672-7.324,3.961  c-0.844-0.68-1.727-1.32-2.477-2.082c2.18-1.203,4.234-2.527,6.383-3.758c-0.883-0.684-1.883-1.25-2.867-1.832  c-1.18,0.871-2.266,1.824-3.469,2.672c-0.695-0.398-1.383-0.793-2.027-1.238c1.082-0.926,2.191-1.836,3.215-2.82  c-0.848-0.578-1.848-0.992-2.625-1.637c0.523-0.867,1.008-1.77,1.539-2.621c0.938,0.461,1.766,1.039,2.719,1.484  c0.297-1.387,0.523-2.84,0.844-4.207c0.676,0.418,1.43,0.746,2.078,1.188c-0.227,1.422-0.406,2.891-0.641,4.305  c1.016,0.535,1.977,1.125,3.07,1.586c-0.008-2.527,0.031-5.012,0.094-7.477c0.984,0.43,2.086,0.727,3.023,1.191  c0.035,2.816,0.109,5.602,0.195,8.363c0.656,0.332,1.402,0.738,2.031,1.09c0.195,0.105,0.414,0.336,0.594,0.246  c0.07-2.473,0.09-4.996,0.148-7.473c0.965,0.57,2.352,0.719,2.977,1.633c0.07,2.598,0.164,5.172,0.195,7.82  c1.605,0.871,3.273,1.941,4.852,2.672c-0.344-2.59-0.656-5.219-0.941-7.867c1.684,1.125,3.449,2.465,5.047,3.609  c0.207,0.152,0.449,0.375,0.699,0.348c0.102-1.461,0.023-3.109,0.047-4.652c-1.516-1-3.5-2.148-5.25-3.215  c-0.281-0.176-1.594-0.863-1.68-1.137c-0.055-0.168,0.07-0.496,0.102-0.746c0.102-0.918,0.125-1.625,0.242-2.426  c2.219,1.219,4.426,2.449,6.633,3.664c-0.008-1.023,0.008-2.004,0.055-2.969c-2.336-1.543-4.844-2.91-7.18-4.453  c0.199-1.023,0.332-2.109,0.547-3.121c2.211,1.172,4.336,2.43,6.531,3.613c0.09-1.098,0.074-2.297,0.148-3.414  c-1.391-0.539-2.809-1.055-4.109-1.688c0.031-0.758,0.07-1.508,0.051-2.32c1.395,0.434,2.707,0.957,4.105,1.383  C-191.854,17.754-191.854,16.715-191.854,15.676z M-189.775,44.629c-1.828-1.273-3.586-2.617-5.438-3.859  c0.234,2.234,0.492,4.453,0.789,6.629c-2.031,0.945-4.156,1.785-6.086,2.82c2.051,0.883,4.168,1.703,6.141,2.672  c-0.25,2.148-0.469,4.324-0.648,6.539c1.773-1.133,3.547-2.688,5.398-3.91c1.813,1.281,3.574,2.621,5.438,3.859  c-0.281-2.203-0.555-4.43-0.789-6.684c2.059-0.891,4.109-1.793,6.086-2.77c-2.055-0.883-4.164-1.699-6.133-2.672  c0.156-2.223,0.5-4.516,0.586-6.633C-186.182,41.984-187.986,43.297-189.775,44.629z"></path><g><path d="M-94.006,79.568c0,2.039,1.656,3.695,3.691,3.695h40.629c2.035,0,3.695-1.656,3.695-3.695V33.033h-48.016V79.568z"></path><path d="M-45.439,22.322h-14.816c0.016-0.137,0.039-0.277,0.039-0.414v-1.477c0-2.043-1.648-3.695-3.688-3.695h-12.188   c-2.043,0-3.695,1.652-3.695,3.695v1.477c0,0.137,0.023,0.277,0.039,0.414h-14.813c-2.039,0-3.691,1.652-3.691,3.691v5.172h56.504   v-5.172C-41.748,23.975-43.4,22.322-45.439,22.322z M-77.326,22.322c0.512-1.422,1.852-2.449,3.445-2.449h7.758   c1.602,0,2.938,1.027,3.457,2.449H-77.326z"></path></g><g><path d="M64,74h-4V42h-8v32h-4V42h-8v32h-4V42h-8v38c0,1.102,0.898,2,2,2h40c1.102,0,2-0.898,2-2V42h-8V74z"></path><path d="M76,26H60v-6c0-1.098-0.898-2-2-2H42c-1.102,0-2,0.902-2,2v6H24c-2.199,0-4,1.801-4,4v4c0,2.199,1.801,4,4,4h52   c2.203,0,4-1.801,4-4v-4C80,27.801,78.203,26,76,26z M44,26v-4h12v4H44z"></path></g><g><path d="M156,26C156,30,156,26,156,26v8h8v-8h12v8h8v-8c0,0,0,4,0,0c0-8-4-8-8-8s-4,0-12,0S156,22,156,26z"></path><g><path d="M196,30.5c0-0.275-0.225-0.5-0.5-0.5h-51c-0.275,0-0.5,0.225-0.5,0.5v7c0,0.275,0.225,0.5,0.5,0.5h3    c0.275,0,0.5,0.225,0.5,0.5v43c0,0.275,0.225,0.5,0.5,0.5h43c0.275,0,0.5-0.225,0.5-0.5v-43c0-0.275,0.225-0.5,0.5-0.5h3    c0.275,0,0.5-0.225,0.5-0.5V30.5z M160,73.5c0,0.275-0.225,0.5-0.5,0.5h-3c-0.275,0-0.5-0.225-0.5-0.5V40.846    c0-0.275,0.225-0.5,0.5-0.5h3c0.275,0,0.5,0.225,0.5,0.5V73.5z M172,73.5c0,0.275-0.225,0.5-0.5,0.5h-3    c-0.275,0-0.5-0.225-0.5-0.5V40.846c0-0.275,0.225-0.5,0.5-0.5h3c0.275,0,0.5,0.225,0.5,0.5V73.5z M184,73.5    c0,0.275-0.225,0.5-0.5,0.5h-3c-0.275,0-0.5-0.225-0.5-0.5V40.846c0-0.275,0.225-0.5,0.5-0.5h3c0.275,0,0.5,0.225,0.5,0.5V73.5z"></path></g></g><path d="M290,20.5c-16.289,0-29.5,13.211-29.5,29.5s13.211,29.5,29.5,29.5c16.297,0,29.5-13.211,29.5-29.5S306.297,20.5,290,20.5z   M290,28.5c4.461,0,8.602,1.367,12.039,3.695l-29.844,29.84C269.867,58.598,268.5,54.453,268.5,50  C268.5,38.145,278.148,28.5,290,28.5z M290,71.5c-4.508,0-8.695-1.414-12.156-3.797l29.859-29.859  c2.391,3.461,3.797,7.641,3.797,12.156C311.5,61.855,301.859,71.5,290,71.5z"></path><g><path d="M410,18c-17.672,0-32,14.328-32,32s14.328,32,32,32s32-14.328,32-32S427.672,18,410,18z M410,78c-15.438,0-28-12.559-28-28   c0-15.439,12.563-28,28-28s28,12.561,28,28C438,65.441,425.438,78,410,78z"></path><path d="M410,30c-11.047,0-20,8.953-20,20c0,3.516,0.984,6.77,2.578,9.641l27.063-27.063C416.773,30.986,413.516,30,410,30z"></path><path d="M427.422,40.359l-27.063,27.063C403.234,69.016,406.484,70,410,70c11.047,0,20-8.953,20-20   C430,46.484,429.016,43.23,427.422,40.359z"></path></g><g><path d="M502,22v56h56V22H502z M554,74h-48V26h48V74z"></path><polygon points="519.656,67.945 530.961,56.625 542.281,67.938 547.93,62.281 536.625,50.969 547.93,39.656 542.281,34    530.961,45.313 519.656,34 514,39.656 525.313,50.973 514,62.289  "></polygon></g><path d="M-540.383,169.998l13.961-13.961c0.953-0.953,1.43-2.203,1.43-3.449s-0.484-2.5-1.43-3.449l-2.719-2.719  c-0.148-0.145-0.297-0.246-0.422-0.344l-0.406-0.328l-0.002,0.057c-0.81-0.523-1.726-0.803-2.654-0.803  c-1.234,0-2.477,0.469-3.414,1.418L-550,160.381l-13.961-13.961c-0.953-0.953-2.203-1.43-3.453-1.426  c-1.25-0.004-2.5,0.477-3.445,1.426l-2.719,2.719c-0.961,0.953-1.43,2.203-1.43,3.449c0,1.25,0.469,2.496,1.422,3.449l13.969,13.961  l-13.969,13.965c-0.953,0.949-1.422,2.199-1.422,3.445s0.469,2.496,1.422,3.449l0.071,0.069l0,0.001l0.373,0.372l0.042,0.042v0  l2.242,2.239c0.945,0.949,2.203,1.426,3.445,1.426c1.25,0,2.5-0.477,3.445-1.426L-550,179.615l13.961,13.965  c0.953,0.949,2.195,1.426,3.445,1.426h0.008c1.242,0,2.492-0.48,3.445-1.426l2.719-2.723c0.953-0.953,1.43-2.203,1.43-3.449  s-0.484-2.5-1.43-3.445L-540.383,169.998z"></path><path d="M-397.656,161.502c-3.758-14.344-16.805-24.934-32.344-24.934c-18.469,0-33.438,14.969-33.438,33.43  c0,6.805,2.039,13.133,5.531,18.414c5.984,9.047,16.242,15.02,27.906,15.02c18.469,0,33.438-14.969,33.438-33.434  C-396.563,167.064-396.945,164.217-397.656,161.502z M-424.078,191.463c-1.883,0.523-3.867,0.813-5.922,0.813  c-7.367,0-13.898-3.617-17.953-9.145c-2.703-3.688-4.32-8.219-4.32-13.133c0-2.207,0.328-4.34,0.938-6.352  c0.352-1.156,1.469-3.18,3.43-1.223c1.086,1.09,23.93,23.93,24.836,24.832C-421.023,189.303-422.766,191.092-424.078,191.463z   M-408.781,176.779c-0.398,1.23-2.32,2.434-4.32,0.707c-0.648-0.543-23.727-23.715-24.938-24.922  c-1.766-1.773,0.914-3.734,2.641-4.168c1.727-0.438,3.539-0.668,5.398-0.668c11.195,0,20.453,8.297,22.016,19.059  c0.156,1.051,0.266,2.117,0.266,3.211C-407.719,172.365-408.094,174.643-408.781,176.779z"></path><g><path d="M-310,171.799c3.078-0.004,5.531-2.672,5.539-5.945v-23.824c-0.008-3.27-2.461-5.941-5.547-5.941   c-3.063,0-5.531,2.672-5.531,5.941v23.824C-315.539,169.127-313.07,171.795-310,171.799z"></path><path d="M-284.706,153.747l0.003-0.007l-0.086-0.113l-0.281-0.375l-0.008,0.021c-1.045-1.359-2.182-2.644-3.43-3.81l-0.133-0.145   c-0.438-0.453-1.047-0.66-1.727-0.656c-1.305,0.004-2.875,0.723-4.219,2.008c-1.406,1.34-2.211,2.949-2.219,4.285   c0,0.609,0.18,1.176,0.578,1.594l0.039,0.043l-0.039,0.039l0.203,0.188c1.716,1.538,3.168,3.36,4.31,5.387l0.096,0.172   c1.641,2.988,2.578,6.41,2.578,10.063c0,4.867-1.68,9.324-4.469,12.883l-0.32,0.418h0.016c-3.852,4.672-9.664,7.664-16.195,7.664   c-6.359,0-12.047-2.848-15.898-7.332c-2.422-2.824-4.102-6.293-4.75-10.121l-0.002-0.011c-0.201-1.14-0.303-2.307-0.303-3.505   c0-6.203,2.695-11.781,6.984-15.617l0.203-0.184l-0.039-0.043l0.039-0.043c0.398-0.422,0.586-0.984,0.578-1.594   c-0.008-1.336-0.813-2.945-2.219-4.285c-1.344-1.285-2.922-2.004-4.227-2.004c-0.664-0.008-1.289,0.195-1.719,0.656l-0.148,0.148   c-6.125,5.73-9.969,13.898-9.969,22.965c0,4.296,0.868,8.384,2.423,12.114l-0.001,0.003l0.047,0.113l0.219,0.523l0.009-0.019   c1.575,3.551,3.783,6.761,6.483,9.476c5.703,5.723,13.586,9.266,22.289,9.266c12.695,0,23.625-7.512,28.602-18.324   c1.844-4.004,2.883-8.453,2.883-13.148C-278.523,165.433-280.829,158.973-284.706,153.747z"></path></g><path d="M-190,138c-17.672,0-32,14.328-32,32s14.328,32,32,32s32-14.328,32-32S-172.328,138-190,138z M-194,146h8v20h-8V146z   M-190,191.203c-11.688,0-21.203-9.508-21.203-21.203c0-8.398,5-16.008,12.719-19.398l0.484-0.211v7.273  c-4.266,2.75-6.797,7.297-6.797,12.336c0,8.164,6.641,14.805,14.797,14.805c8.164,0,14.805-6.641,14.805-14.805  c0-5.039-2.555-9.586-6.805-12.336v-7.273l0.484,0.211c7.727,3.391,12.719,11,12.719,19.398  C-168.797,181.695-178.32,191.203-190,191.203z"></path><path d="M-33.906,170c0,9.953-3.523,18.457-10.578,25.512S-60.047,206.094-70,206.094s-18.453-3.527-25.508-10.582  c-7.063-7.055-10.586-15.559-10.586-25.512s3.523-18.457,10.586-25.512c7.055-7.055,15.555-10.582,25.508-10.582  s18.461,3.527,25.516,10.582S-33.906,160.047-33.906,170z M-89.109,175.496h38.219v-10.992h-38.219V175.496z"></path><path d="M83.414,156.426c-1.805-4.465-4.438-8.438-7.922-11.922c-3.477-3.477-7.453-6.117-11.914-7.918  c-4.469-1.793-8.984-2.695-13.547-2.695s-9.102,0.902-13.602,2.695c-4.508,1.801-8.484,4.434-11.945,7.895  s-6.094,7.441-7.891,11.945c-1.805,4.508-2.703,9.039-2.703,13.602s0.891,9.09,2.672,13.574s4.406,8.473,7.883,11.945  c3.484,3.488,7.469,6.113,11.953,7.891c4.492,1.785,9.016,2.676,13.57,2.672c4.57,0,9.102-0.898,13.609-2.699  c4.5-1.797,8.484-4.422,11.945-7.883s6.086-7.449,7.891-11.957c1.797-4.5,2.695-9.035,2.695-13.602  C86.117,165.414,85.211,160.898,83.414,156.426z M67.375,179.656l-7.719,7.715l-9.625-9.629l-9.688,9.688l-7.773-7.773l9.688-9.688  l-9.633-9.629l7.719-7.711l9.625,9.629l9.688-9.688l7.773,7.77l-9.688,9.688L67.375,179.656z"></path><g><g><path d="M169.275,157.74c8.82,0,16,7.178,16,16s-7.18,16-16,16c-8.828,0-16-7.178-16-16S160.447,157.74,169.275,157.74     M169.275,149.74c-13.25,0-24,10.744-24,24s10.75,24,24,24c13.258,0,24-10.744,24-24S182.533,149.74,169.275,149.74    L169.275,149.74z"></path></g><g><path d="M168.002,174.906c-1.109,0-2-0.895-2-2v-4c0-1.105,0.891-2,2-2c1.102,0,2,0.895,2,2v4    C170.002,174.012,169.104,174.906,168.002,174.906z"></path></g><g><path d="M174.51,180.109c-0.445,0-0.883-0.143-1.258-0.438l-6.5-5.203c-0.867-0.691-1-1.949-0.313-2.813    c0.695-0.861,1.953-0.994,2.813-0.313l6.5,5.203c0.867,0.691,1,1.949,0.313,2.813C175.674,179.852,175.088,180.109,174.51,180.109    z"></path></g><path d="M198.096,160.662c3.523-5.314,2.938-12.535-1.734-17.219c-4.68-4.68-11.906-5.258-17.219-1.74L198.096,160.662z"></path><path d="M141.9,160.662c-3.516-5.314-2.938-12.535,1.742-17.219c4.672-4.68,11.906-5.258,17.219-1.74L141.9,160.662z"></path><g><path d="M191.184,200.209c-0.194,0.194-0.513,0.194-0.707,0l-7.777-7.777c-0.194-0.194-0.194-0.513,0-0.707l2.121-2.121    c0.194-0.194,0.513-0.194,0.707,0l7.777,7.777c0.194,0.194,0.194,0.513,0,0.707L191.184,200.209z"></path></g><g><path d="M148.82,200.209c0.194,0.194,0.513,0.194,0.707,0l7.777-7.777c0.194-0.194,0.194-0.513,0-0.707l-2.121-2.121    c-0.194-0.194-0.513-0.194-0.707,0l-7.777,7.777c-0.194,0.194-0.194,0.513,0,0.707L148.82,200.209z"></path></g></g><g><path d="M276.953,149.066c1.414,2.504,0.867,5.484-1.211,6.66l0,0c-2.086,1.176-4.914,0.098-6.328-2.402l-1.32-2.348   c-1.422-2.5-0.875-5.48,1.211-6.656l0,0c2.078-1.176,4.914-0.098,6.32,2.402L276.953,149.066z"></path><path d="M316.477,197.578c0,3.992-3.234,7.23-7.227,7.23s-7.234-3.238-7.234-7.23c0-3.996,3.242-7.234,7.234-7.234   S316.477,193.582,316.477,197.578z"></path><path d="M278.344,197.578c0,3.992-3.234,7.23-7.227,7.23s-7.234-3.238-7.234-7.23c0-3.996,3.242-7.234,7.234-7.234   S278.344,193.582,278.344,197.578z"></path><path d="M285.422,141.566c-2.781-3.855-7.297-6.375-12.414-6.375c-8.453,0-15.297,6.848-15.297,15.297   c0,2.754,0.734,5.332,2.008,7.563C266.289,150.148,275.211,144.293,285.422,141.566z"></path><path d="M301.758,149.066c-1.406,2.504-0.867,5.484,1.211,6.66l0,0c2.086,1.176,4.922,0.098,6.328-2.402l1.328-2.348   c1.406-2.5,0.867-5.48-1.219-6.656l0,0c-2.086-1.176-4.906-0.098-6.32,2.402L301.758,149.066z"></path><path d="M294.57,141.566c2.781-3.855,7.297-6.375,12.414-6.375c8.453,0,15.305,6.848,15.305,15.297   c0,2.754-0.742,5.332-2.008,7.563C313.719,150.148,304.781,144.293,294.57,141.566z"></path><g><path d="M289.828,146.109c-16.203,0-29.344,13.145-29.344,29.352s13.141,29.348,29.344,29.348s29.344-13.141,29.344-29.348    S306.031,146.109,289.828,146.109z M289.828,196.867c-11.805,0-21.406-9.609-21.406-21.41s9.602-21.406,21.406-21.406    s21.406,9.605,21.406,21.406S301.633,196.867,289.828,196.867z"></path><path d="M292.453,173.637c0,1.008-1.164,1.82-2.633,1.82l0,0c-1.445,0-2.617-0.813-2.617-1.82v-14.605    c0-1.008,1.172-1.824,2.617-1.824l0,0c1.469,0,2.633,0.816,2.633,1.824V173.637z"></path><path d="M300.086,172.48c0.734,0,1.32,1.176,1.32,2.625l0,0c0,1.453-0.586,2.629-1.32,2.629h-10.523    c-0.719,0-1.313-1.176-1.313-2.629l0,0c0-1.449,0.594-2.625,1.313-2.625H300.086z"></path><path d="M289.656,180.406c-3.031,0-5.484-2.457-5.484-5.48s2.453-5.48,5.484-5.48c3.016,0,5.484,2.457,5.484,5.48    S292.672,180.406,289.656,180.406L289.656,180.406z"></path></g></g><path d="M430,158c0-11.047-8.953-20-20-20c-11.039,0-20,8.953-20,20c0,9.672,6.883,17.742,16,19.598V186h-8v8h8v8h8v-8h8v-8h-8  v-8.402C423.125,175.742,430,167.672,430,158z M410,170c-6.617,0-12-5.383-12-12s5.383-12,12-12s12,5.383,12,12S416.617,170,410,170  z"></path><path d="M532,140v8h14.344l-15.328,15.328C527.859,161.234,524.078,160,520,160c-11.039,0-20,8.953-20,20s8.961,20,20,20  c11.047,0,20-8.953,20-20c0-4.074-1.234-7.855-3.328-11.016L552,153.656V168h8v-28H532z M520,192c-6.617,0-12-5.383-12-12  s5.383-12,12-12s12,5.383,12,12S526.617,192,520,192z"></path></svg>